<svg width="37" height="37" viewBox="0 0 37 37" fill="none" xmlns="http://www.w3.org/2000/svg">
<path fill-rule="evenodd" clip-rule="evenodd" d="M8.42909 0.702998C15.3153 -0.0598535 22.2648 -0.0598535 29.151 0.702998C32.9131 1.12298 35.9461 4.08468 36.3879 7.86059C37.204 14.8432 37.204 21.8971 36.3879 28.8797C35.9461 32.6556 32.9131 35.6173 29.153 36.0393C22.2661 36.8023 15.316 36.8023 8.42909 36.0393C4.66704 35.6173 1.63403 32.6556 1.19225 28.8817C0.376019 21.8984 0.376019 14.8439 1.19225 7.86059C1.63403 4.08468 4.66704 1.12298 8.42909 0.702998ZM28.6954 6.48375C28.17 6.48375 27.6661 6.69247 27.2946 7.06399C26.9231 7.43551 26.7143 7.93941 26.7143 8.46482C26.7143 8.99023 26.9231 9.49412 27.2946 9.86564C27.6661 10.2372 28.17 10.4459 28.6954 10.4459C29.2208 10.4459 29.7247 10.2372 30.0962 9.86564C30.4677 9.49412 30.6765 8.99023 30.6765 8.46482C30.6765 7.93941 30.4677 7.43551 30.0962 7.06399C29.7247 6.69247 29.2208 6.48375 28.6954 6.48375ZM9.38 18.3701C9.38 15.8744 10.3714 13.481 12.1361 11.7162C13.9009 9.9515 16.2944 8.96008 18.7901 8.96008C21.2858 8.96008 23.6793 9.9515 25.444 11.7162C27.2087 13.481 28.2001 15.8744 28.2001 18.3701C28.2001 20.8659 27.2087 23.2593 25.444 25.0241C23.6793 26.7888 21.2858 27.7802 18.7901 27.7802C16.2944 27.7802 13.9009 26.7888 12.1361 25.0241C10.3714 23.2593 9.38 20.8659 9.38 18.3701Z" fill="black"/>
<path d="M18.9053 12.0176C17.1977 12.0176 15.56 12.6959 14.3526 13.9034C13.1451 15.1108 12.4668 16.7485 12.4668 18.456C12.4668 20.1636 13.1451 21.8013 14.3526 23.0087C15.56 24.2162 17.1977 24.8945 18.9053 24.8945C20.6129 24.8945 22.2505 24.2162 23.4579 23.0087C24.6654 21.8013 25.3437 20.1636 25.3437 18.456C25.3437 16.7485 24.6654 15.1108 23.4579 13.9034C22.2505 12.6959 20.6129 12.0176 18.9053 12.0176Z" fill="black"/>
</svg>
