<svg width="24" height="24" viewBox="0 0 24 24" fill="none" xmlns="http://www.w3.org/2000/svg">
<path d="M12.0011 6.65404C12.8105 7.28978 13.4649 8.10123 13.9146 9.02704C14.3643 9.95284 14.5977 10.9688 14.5971 11.998C14.5973 13.027 14.3636 14.0426 13.9137 14.9681C13.4638 15.8935 12.8094 16.7046 12.0001 17.34C11.1908 16.7044 10.5365 15.8931 10.0868 14.9675C9.63706 14.0419 9.40361 13.0261 9.40408 11.997C9.40346 10.9678 9.63684 9.95184 10.0866 9.02604C10.5363 8.10023 11.1906 7.28878 12.0001 6.65304M11.1301 6.07104C10.2731 6.80278 9.58533 7.71195 9.11431 8.73565C8.64329 9.75936 8.40028 10.8732 8.40208 12C8.40071 13.1264 8.64394 14.2396 9.11494 15.2628C9.58595 16.2859 10.2735 17.1946 11.1301 17.926C10.0955 18.5068 8.92686 18.8067 7.74042 18.7959C6.55398 18.7851 5.39103 18.4639 4.36718 17.8644C3.34333 17.2648 2.49423 16.4077 1.90428 15.3783C1.31434 14.3489 1.00409 13.183 1.00439 11.9965C1.0047 10.81 1.31553 9.64424 1.90599 8.61511C2.49646 7.58599 3.34599 6.72932 4.37015 6.13027C5.39431 5.53123 6.55741 5.21066 7.74386 5.20045C8.9303 5.19023 10.0988 5.49072 11.1331 6.07204M12.8751 17.926C13.7315 17.1945 14.4188 16.2858 14.8897 15.2627C15.3605 14.2395 15.6036 13.1263 15.6021 12C15.6035 10.8732 15.3601 9.75947 14.8887 8.73594C14.4174 7.7124 13.7293 6.80348 12.8721 6.07204C13.9064 5.49072 15.0749 5.19023 16.2613 5.20045C17.4477 5.21066 18.6109 5.53123 19.635 6.13027C20.6592 6.72932 21.5087 7.58599 22.0992 8.61511C22.6896 9.64424 23.0005 10.81 23.0008 11.9965C23.0011 13.183 22.6908 14.3489 22.1009 15.3783C21.5109 16.4077 20.6618 17.2648 19.638 17.8644C18.6141 18.4639 17.4512 18.7851 16.2647 18.7959C15.0783 18.8067 13.9097 18.5068 12.8751 17.926Z" fill="black"/>
</svg>
