<svg width="24" height="24" viewBox="0 0 24 24" fill="none" xmlns="http://www.w3.org/2000/svg">
<path d="M20.689 8.8697L22 15.1287H20.498C20.438 14.8667 20.391 14.5927 20.331 14.3307C20.271 14.0687 20.331 14.1997 20.176 14.1997H18.353C18.3334 14.1963 18.3132 14.197 18.2939 14.2019C18.2746 14.2067 18.2565 14.2155 18.2407 14.2278C18.225 14.24 18.212 14.2554 18.2026 14.2729C18.1932 14.2905 18.1875 14.3098 18.186 14.3297C18.102 14.5697 18.019 14.8077 17.924 15.0337C17.828 15.2597 17.84 15.1407 17.804 15.1407H16.196V14.9977C16.9907 13.1144 17.785 11.2274 18.579 9.3367C18.6258 9.20826 18.7098 9.09664 18.8202 9.01599C18.9305 8.93533 19.0624 8.88929 19.199 8.8837C19.723 8.8597 20.2 8.8717 20.689 8.8717M19.569 10.6247L18.722 12.9017H20.057L19.569 10.6247ZM6.112 13.1257V12.9827C6.589 11.6597 7.077 10.3367 7.542 9.0137C7.542 8.9067 7.638 8.8587 7.757 8.8587H9.342V9.0137L6.875 14.9737C6.86328 15.0231 6.83347 15.0663 6.79145 15.0948C6.74942 15.1233 6.69824 15.1351 6.648 15.1277H5.266C5.146 15.1277 5.099 15.1277 5.063 14.9727C4.623 13.2567 4.169 11.5407 3.728 9.8127C3.70652 9.72348 3.65085 9.64627 3.573 9.5977C3.11308 9.34101 2.62566 9.13705 2.12 8.9897C2.12 8.9897 2.036 8.9297 2 8.9067C2.05077 8.89312 2.10423 8.89312 2.155 8.9067H4.539C4.63857 8.89155 4.74022 8.89762 4.83729 8.92449C4.93436 8.95137 5.02465 8.99845 5.10226 9.06265C5.17986 9.12684 5.24303 9.20672 5.28762 9.29703C5.33221 9.38734 5.35721 9.48605 5.361 9.5867L6.041 13.0777C6.03706 13.1056 6.03706 13.1338 6.041 13.1617L6.112 13.1257ZM11.666 14.8897L11.905 13.4947L12.072 13.5907C12.6807 13.9052 13.3787 14.0019 14.05 13.8647C14.1783 13.8537 14.3 13.803 14.3982 13.7197C14.4965 13.6364 14.5663 13.5245 14.598 13.3997C14.6108 13.2751 14.583 13.1498 14.5186 13.0423C14.4543 12.9349 14.3569 12.8512 14.241 12.8037C14.002 12.6487 13.741 12.5297 13.514 12.3747C13.22 12.2109 12.9479 12.0106 12.704 11.7787C12.4567 11.4828 12.3211 11.1094 12.3211 10.7237C12.3211 10.338 12.4567 9.96461 12.704 9.6687C13.0629 9.27671 13.5322 9.00267 14.05 8.8827C14.8389 8.68504 15.6687 8.72646 16.434 9.0017H16.494L16.267 10.2887C15.9662 10.1968 15.6595 10.1253 15.349 10.0747C15.0395 10.0506 14.7285 10.0506 14.419 10.0747C14.3073 10.0971 14.2043 10.1509 14.122 10.2297C14.0823 10.2635 14.0505 10.3055 14.0287 10.3528C14.0068 10.4001 13.9955 10.4516 13.9955 10.5037C13.9955 10.5558 14.0068 10.6073 14.0287 10.6546C14.0505 10.7019 14.0823 10.7439 14.122 10.7777C14.2647 10.909 14.4193 11.0244 14.586 11.1237C14.896 11.3137 15.218 11.4687 15.516 11.6717C15.7625 11.8224 15.967 12.0329 16.1103 12.2838C16.2537 12.5346 16.3314 12.8176 16.3362 13.1065C16.341 13.3954 16.2727 13.6808 16.1377 13.9363C16.0027 14.1917 15.8054 14.4089 15.564 14.5677C15.0889 14.9359 14.5178 15.1594 13.919 15.2117C13.1529 15.2948 12.3782 15.1841 11.666 14.8897ZM9.02 15.1277L10.045 8.8707H11.678L10.653 15.1277H9.02Z" fill="black"/>
</svg>
